<svg width="74" height="31" viewBox="0 0 74 31" fill="none" xmlns="http://www.w3.org/2000/svg">
<path fill-rule="evenodd" clip-rule="evenodd" d="M63.342 2.54581C63.342 5.02881 63.342 5.08282 63.489 4.93082C63.728 4.67882 67.045 0.261814 67.096 0.130814C67.138 0.0218136 66.931 0.0078125 65.242 0.0078125H63.342V2.54881M2.566 14.7448C1.43 16.6928 0.5 18.3248 0.5 18.3708C1.85345 18.4799 3.21221 18.508 4.569 18.4548C8.313 18.4548 8.634 18.4448 8.588 18.3248C8.542 18.2048 5.006 11.8158 4.764 11.4178L4.632 11.2018L2.566 14.7448Z" fill="#F45C2C"/>
<path fill-rule="evenodd" clip-rule="evenodd" d="M10.511 1.107C10.156 1.715 9.84899 2.274 9.82899 2.35C10.1392 3.108 10.51 3.83971 10.938 4.538L12.083 6.588L9.683 6.609L7.283 6.63L6.32899 8.271C5.80499 9.171 5.375 9.944 5.375 9.984C5.375 10.024 6.413 11.926 7.681 14.213L9.987 18.371H13.673H17.359V14.038H7.83L8.711 12.502L9.592 10.966H12.766H15.94V6.627H14.087C13.068 6.627 12.234 6.613 12.234 6.596C12.234 6.579 12.521 6.064 12.871 5.453L13.508 4.341H19.251V18.375H23.501L23.527 14.097C23.556 9.352 23.555 9.356 24.086 8.66C24.4831 8.22198 25.032 7.95146 25.6213 7.90336C26.2106 7.85526 26.7961 8.03317 27.259 8.401C27.892 9.034 27.879 8.927 27.906 13.939L27.93 18.374H32.254L32.278 13.974C32.305 9.116 32.296 9.204 32.822 8.566C33.0063 8.34765 33.2378 8.17412 33.4991 8.05855C33.7603 7.94299 34.0445 7.88842 34.33 7.899C34.6307 7.84092 34.9409 7.85603 35.2345 7.94305C35.5282 8.03007 35.7965 8.18645 36.017 8.399C36.632 9.014 36.628 8.971 36.657 13.97L36.683 18.37H41.028L40.993 13.422C40.954 7.873 40.933 7.636 40.4 6.548C39.9134 5.62966 39.166 4.87572 38.252 4.381C37.4727 3.9838 36.6038 3.79534 35.73 3.834C34.8655 3.78959 34.0056 3.98586 33.246 4.401C32.5418 4.81741 31.9201 5.35977 31.412 6.001C31.371 6.08714 31.3116 6.16325 31.238 6.224C31.1282 6.11244 31.0343 5.98625 30.959 5.849C30.5489 5.24521 30.0121 4.73809 29.386 4.363C28.6932 3.97359 27.9034 3.79072 27.11 3.836C26.3147 3.80669 25.5239 3.96855 24.804 4.308C24.2674 4.59443 23.802 4.99768 23.442 5.488C23.33 5.698 23.324 5.679 23.286 5.004L23.247 4.304L21.297 4.283L19.347 4.262L19.326 2.154L19.305 0.0460014L15.23 0.0200005L11.157 0L10.511 1.1M49.111 3.9C48.659 3.95741 48.2247 4.11156 47.8376 4.35194C47.4506 4.59232 47.1198 4.9133 46.868 5.293L46.549 5.771V4.261H42.528V18.375H46.86L46.882 14.058C46.907 9.235 46.873 9.528 47.482 8.893C48.0163 8.44128 48.6933 8.1933 49.393 8.193L50.174 8.104L50.195 6.461L50.216 4.818L52.648 11.042L55.08 17.266L54.013 19.852C53.426 21.274 52.922 22.5 52.893 22.576C52.844 22.705 52.982 22.714 55.124 22.714H57.408L59.999 15.814L62.59 8.914L62.759 9.38C63.1405 10.3025 63.8542 11.0483 64.759 11.47C64.998 11.591 65.9 11.951 66.765 12.27C67.63 12.589 68.514 12.951 68.73 13.07C68.9156 13.1586 69.0754 13.293 69.1944 13.4607C69.3134 13.6283 69.3876 13.8236 69.41 14.028C69.41 14.565 68.772 15.049 68.062 15.053C67.7513 15.0833 67.4394 15.0096 67.1751 14.8435C66.9109 14.6773 66.7093 14.4281 66.602 14.135L66.472 13.794H62.386L62.441 14.169C62.5417 14.9294 62.8297 15.6529 63.2789 16.2745C63.7281 16.8962 64.3247 17.3967 65.015 17.731C65.8547 18.1707 66.7948 18.383 67.742 18.347C68.3708 18.406 69.0051 18.3604 69.619 18.212C70.6204 18.0141 71.5398 17.5213 72.259 16.797C72.7173 16.3857 73.0695 15.8698 73.2857 15.2931C73.502 14.7165 73.5758 14.0963 73.501 13.485C73.5313 13.0163 73.4363 12.548 73.226 12.128C72.643 10.889 71.785 10.336 69.257 9.572C67.386 9.02 66.73 8.612 66.73 8.02C66.73 7.493 67.165 7.181 67.897 7.181C68.1338 7.1446 68.3758 7.19443 68.579 7.32144C68.7822 7.44844 68.933 7.64416 69.004 7.873L69.11 8.206H73.116V7.978C73.0217 7.29773 72.806 6.63994 72.479 6.036C71.7663 4.99157 70.6831 4.25727 69.449 3.982C68.4329 3.79073 67.3901 3.79073 66.374 3.982C65.5682 4.20321 64.8113 4.57436 64.143 5.076C63.648 5.49785 63.2403 6.01252 62.943 6.591L62.801 6.906L62.795 5.347L62.789 3.788L61.356 3.809L59.923 3.831L58.577 7.912L57.231 11.993L56.386 9.52C55.922 8.164 55.286 6.32 54.977 5.42L54.411 3.784L52.035 3.791C51.0576 3.76649 50.0797 3.80356 49.107 3.902" fill="white"/>
<path d="M13.9575 22.5155C13.5916 22.5753 13.2352 22.6832 12.8975 22.8365C12.1203 23.2177 11.4963 23.8527 11.1285 24.6365C11.0755 24.7525 11.0225 24.8715 11.0095 24.9015C10.962 25.0371 10.9223 25.1753 10.8905 25.3154C10.8145 25.6005 10.7844 25.8959 10.8015 26.1904C10.7812 26.8684 10.9648 27.5369 11.3285 28.1095C11.6478 28.6143 12.0772 29.0403 12.5845 29.3555C12.7701 29.4711 12.968 29.5657 13.1745 29.6375C13.2016 29.6389 13.2273 29.6494 13.2475 29.6675C13.3489 29.7113 13.4545 29.7448 13.5625 29.7675C14.0814 29.8742 14.6147 29.8921 15.1395 29.8205C15.8648 29.6898 16.5329 29.3409 17.0545 28.8205C17.2779 28.6066 17.4698 28.3622 17.6245 28.0945C17.6745 28.0015 17.7435 27.8795 17.7765 27.8195C17.9243 27.4829 18.0333 27.1306 18.1015 26.7695C18.1228 26.6157 18.1318 26.4606 18.1285 26.3055L18.1185 26.1055L16.1235 26.0955L14.1235 26.0885V26.9165H17.1485L17.1285 27.0325C16.9497 27.5768 16.6127 28.0555 16.1605 28.4075C15.9169 28.5756 15.6557 28.7168 15.3815 28.8284C14.9718 28.9617 14.5372 29.0005 14.1103 28.942C13.6834 28.8835 13.2753 28.7291 12.9165 28.4905C12.4932 28.1865 12.1517 27.7825 11.9225 27.3145C11.8895 27.2315 11.8495 27.1355 11.8335 27.0995C11.7079 26.7038 11.664 26.2866 11.7045 25.8735C11.7565 25.3905 11.9344 24.9296 12.2205 24.537C12.5065 24.1444 12.8907 23.8339 13.3345 23.6365C13.7814 23.4335 14.2744 23.3534 14.7625 23.4045C15.4042 23.4691 16.0014 23.7619 16.4455 24.2294C16.6425 24.4207 16.8091 24.6409 16.9395 24.8824C16.957 24.9243 16.9806 24.9634 17.0095 24.9985L17.0755 25.0985H17.5225C17.9335 25.0985 17.9665 25.0984 17.9665 25.0354C17.8957 24.7628 17.779 24.5041 17.6215 24.2705C17.2914 23.722 16.8243 23.269 16.266 22.9558C15.7078 22.6427 15.0776 22.4802 14.4375 22.4845C14.277 22.4846 14.1167 22.4949 13.9575 22.5155Z" fill="#F45C2C" stroke="#F45C2C" stroke-width="0.1"/>
<path d="M18.8199 22.7011C18.8069 22.7111 18.7969 24.2921 18.7969 26.2141V29.7031H19.7579V22.6781H19.2969C19.1375 22.6715 18.9779 22.6792 18.8199 22.7011Z" fill="#F45C2C" stroke="#F45C2C" stroke-width="0.1"/>
<path d="M26.4141 26.1878V29.7008H27.3751V29.3898C27.3647 29.277 27.3758 29.1633 27.4081 29.0548C27.4281 29.0418 27.5241 29.1108 27.6231 29.2068C28.023 29.6011 28.5533 29.8355 29.1141 29.8658C29.5352 29.9225 29.9638 29.8676 30.3571 29.7068C30.9042 29.4673 31.3686 29.0718 31.6921 28.5698C32.0223 28.0126 32.1432 27.356 32.0331 26.7178C31.9473 26.1476 31.6642 25.6256 31.2331 25.2428C30.9107 24.9112 30.5043 24.6734 30.0573 24.5548C29.6102 24.4363 29.1394 24.4415 28.6951 24.5698C28.588 24.5913 28.4836 24.6248 28.3841 24.6698C28.3632 24.6867 28.3378 24.6972 28.3111 24.6998C28.055 24.8079 27.8213 24.9629 27.6221 25.1568C27.5557 25.2303 27.4772 25.2918 27.3901 25.3388C27.3801 25.3258 27.3701 24.7228 27.3701 23.9968V22.6758H26.4141V26.1878ZM29.5921 25.3458C29.883 25.4099 30.1547 25.542 30.3849 25.7312C30.6151 25.9204 30.7972 26.1613 30.9165 26.4344C31.0358 26.7074 31.0887 27.0048 31.0711 27.3022C31.0535 27.5997 30.9657 27.8887 30.8151 28.1458C30.6336 28.4323 30.3904 28.6746 30.1031 28.8548C29.7604 29.0463 29.3658 29.124 28.9761 29.0768C28.5687 29.0221 28.1899 28.8372 27.8961 28.5498C27.7141 28.3777 27.5686 28.1708 27.4683 27.9413C27.3679 27.7119 27.3148 27.4646 27.312 27.2141C27.3092 26.9637 27.3568 26.7153 27.452 26.4836C27.5472 26.252 27.688 26.0419 27.8661 25.8658C28.085 25.6384 28.3588 25.4712 28.6611 25.3803C28.9634 25.2894 29.284 25.2779 29.5921 25.3468V25.3458Z" fill="#F45C2C" stroke="#F45C2C" stroke-width="0.1"/>
<path d="M38.7339 22.7976C38.7209 22.8106 38.7109 24.3916 38.7109 26.3136V29.8066L39.2009 29.7966L39.6879 29.7866V22.7946L39.2209 22.7846C39.0585 22.7774 38.8958 22.7818 38.7339 22.7976Z" fill="#F45C2C" stroke="#F45C2C" stroke-width="0.1"/>
<path d="M22.5602 24.5509C22.2013 24.6115 21.8583 24.7437 21.5515 24.9395C21.2447 25.1354 20.9803 25.3909 20.7742 25.6909C20.4437 26.1429 20.2733 26.6922 20.2902 27.2519C20.274 27.7959 20.4343 28.3306 20.7472 28.7759C20.956 29.0897 21.228 29.3564 21.5459 29.5589C21.8638 29.7615 22.2206 29.8953 22.5932 29.9519C22.866 30.0115 23.1484 30.0115 23.4212 29.9519C23.6754 29.9228 23.9228 29.8512 24.1532 29.7399C24.5383 29.557 24.8769 29.2889 25.1431 28.956C25.4094 28.623 25.5965 28.2338 25.6902 27.8179C25.7736 27.3431 25.7463 26.8554 25.6102 26.3929C25.4025 25.7743 24.9818 25.2496 24.4232 24.9122C23.8646 24.5749 23.2044 24.4468 22.5602 24.5509ZM23.4982 25.4719C23.9025 25.5813 24.2572 25.8256 24.5037 26.1642C24.7501 26.5029 24.8734 26.9156 24.8532 27.3339C24.8425 27.6794 24.7294 28.0139 24.5282 28.2949C24.3356 28.5678 24.073 28.7838 23.768 28.9201C23.4631 29.0565 23.127 29.1082 22.7952 29.0699C22.3738 29.0266 21.9827 28.831 21.6952 28.5199C21.5284 28.35 21.3974 28.1484 21.3098 27.927C21.2222 27.7056 21.1798 27.4689 21.1852 27.2309C21.1813 26.9895 21.2283 26.75 21.3231 26.5279C21.4178 26.3058 21.5582 26.1062 21.7352 25.9419C22.0033 25.6688 22.3496 25.4857 22.7262 25.4179C22.9845 25.3814 23.2475 25.3999 23.4982 25.4719Z" fill="#F45C2C" stroke="#F45C2C" stroke-width="0.1"/>
<path d="M34.62 24.6156C33.9398 24.7519 33.3369 25.1415 32.9331 25.7056C32.7493 25.9579 32.6136 26.242 32.533 26.5436C32.4614 26.7829 32.4332 27.0332 32.45 27.2826C32.4333 27.5319 32.4614 27.7822 32.533 28.0216C32.6324 28.3749 32.803 28.7041 33.0343 28.9891C33.2656 29.2741 33.5527 29.5087 33.878 29.6786C34.2522 29.874 34.6652 29.9836 35.0871 29.9996C35.3716 29.9796 35.6541 29.9374 35.932 29.8736C36.29 29.7608 36.616 29.5644 36.883 29.3006C36.983 29.2006 37.069 29.1386 37.083 29.1516C37.1084 29.2624 37.1195 29.376 37.116 29.4896L37.129 29.8046L37.6131 29.7946L38.1001 29.7846V24.7846H37.1391L37.122 25.0846C37.1225 25.1953 37.1081 25.3057 37.0791 25.4126C37.0661 25.4256 36.9791 25.3666 36.8971 25.2796C36.5965 24.9975 36.2337 24.7904 35.838 24.675C35.4424 24.5597 35.025 24.5393 34.62 24.6156ZM35.604 25.4306C35.9498 25.4897 36.2726 25.6428 36.5372 25.8732C36.8018 26.1035 36.9979 26.4022 37.104 26.7366C37.1786 27.0799 37.1854 27.4346 37.124 27.7806C36.9839 28.2422 36.6844 28.6391 36.279 28.9006C35.9881 29.0775 35.6548 29.1728 35.3143 29.1763C34.9738 29.1799 34.6386 29.0915 34.344 28.9206C34.2036 28.8277 34.0736 28.72 33.956 28.5996C33.7032 28.3426 33.5296 28.0184 33.456 27.6656C33.4053 27.4149 33.4057 27.1565 33.4573 26.906C33.5088 26.6554 33.6105 26.4179 33.7561 26.2076C33.9957 25.8982 34.3151 25.66 34.68 25.5186C34.9732 25.4012 35.294 25.3706 35.604 25.4306Z" fill="#F45C2C" stroke="#F45C2C" stroke-width="0.1"/>
</svg>
