<svg xmlns="http://www.w3.org/2000/svg" xmlns:xlink="http://www.w3.org/1999/xlink" width="100" height="30" viewBox="0 0 100 30">
  <defs>
    <clipPath id="clip-Emrys_Logo_wht_orng">
      <rect width="100" height="30"/>
    </clipPath>
  </defs>
  <g id="Emrys_Logo_wht_orng" data-name="Emrys Logo wht orng" clip-path="url(#clip-Emrys_Logo_wht_orng)">
    <g id="trace" transform="translate(-63.503 -61.982)">
      <path id="Path_34512" data-name="Path 34512" d="M139.842,64.541c0,2.483,0,2.537.147,2.385.239-.252,3.556-4.669,3.607-4.8.042-.109-.165-.123-1.854-.123h-1.9v2.541M79.066,76.74C77.93,78.688,77,80.32,77,80.366a34.052,34.052,0,0,0,4.069.084c3.744,0,4.065-.01,4.019-.13s-3.582-6.509-3.824-6.907l-.132-.216L79.066,76.74" transform="translate(0 -0.017)" fill="#f45c2c" fill-rule="evenodd"/>
      <path id="Path_34513" data-name="Path 34513" d="M144.125,63.087c-.355.608-.662,1.167-.682,1.243a15.211,15.211,0,0,0,1.109,2.188l1.145,2.05-2.4.021-2.4.021-.954,1.641c-.524.9-.954,1.673-.954,1.713s1.038,1.942,2.306,4.229l2.306,4.158,3.686,0,3.686,0V76.018h-9.529l.881-1.536.881-1.536,3.174,0,3.174,0V68.607h-1.853c-1.019,0-1.853-.014-1.853-.031s.287-.532.637-1.143l.637-1.112h5.743V80.355h4.25l.026-4.278c.029-4.745.028-4.741.559-5.437a2.328,2.328,0,0,1,3.173-.259c.633.633.62.526.647,5.538l.024,4.435h4.324l.024-4.4c.027-4.858.018-4.77.544-5.408a1.882,1.882,0,0,1,1.508-.667,1.909,1.909,0,0,1,1.687.5c.615.615.611.572.64,5.571l.026,4.4h4.345l-.035-4.948c-.039-5.549-.06-5.786-.593-6.874a5.27,5.27,0,0,0-2.148-2.167,5.061,5.061,0,0,0-2.522-.547,4.679,4.679,0,0,0-2.484.567,6.674,6.674,0,0,0-1.834,1.6.654.654,0,0,1-.174.223,1.7,1.7,0,0,1-.279-.375A5.02,5.02,0,0,0,163,66.343a4.161,4.161,0,0,0-2.276-.527,4.977,4.977,0,0,0-2.306.472,4.063,4.063,0,0,0-1.362,1.18c-.112.21-.118.191-.156-.484l-.039-.7-1.95-.021-1.95-.021-.021-2.108-.021-2.108L148.844,62l-4.073-.02-.646,1.1m38.6,2.8a3.171,3.171,0,0,0-2.243,1.393l-.319.478V66.241h-4.021V80.355h4.332l.022-4.317c.025-4.823-.009-4.53.6-5.165a2.962,2.962,0,0,1,1.911-.7l.781-.089.021-1.643.021-1.643,2.432,6.224,2.432,6.224-1.067,2.586c-.587,1.422-1.091,2.648-1.12,2.724-.049.129.089.138,2.231.138h2.284l2.591-6.9,2.591-6.9.169.466a3.987,3.987,0,0,0,2,2.09c.239.121,1.141.481,2.006.8s1.749.681,1.965.8a1.207,1.207,0,0,1,.68.958c0,.537-.638,1.021-1.348,1.025a1.409,1.409,0,0,1-1.46-.918l-.13-.341H196l.055.375a4.634,4.634,0,0,0,2.574,3.562,5.434,5.434,0,0,0,2.727.616,5.716,5.716,0,0,0,1.877-.135,5.119,5.119,0,0,0,2.64-1.415,3.826,3.826,0,0,0,1.242-3.312,2.649,2.649,0,0,0-.275-1.357c-.583-1.239-1.441-1.792-3.969-2.556C201,71,200.344,70.592,200.344,70c0-.527.435-.839,1.167-.839a1,1,0,0,1,1.107.692l.106.333h4.006v-.228a5.731,5.731,0,0,0-.637-1.942,4.981,4.981,0,0,0-3.03-2.054,8.311,8.311,0,0,0-3.075,0,6.648,6.648,0,0,0-2.231,1.094,4.983,4.983,0,0,0-1.2,1.515l-.142.315-.006-1.559-.006-1.559-1.433.021-1.433.022-1.346,4.081-1.346,4.081L190,71.5c-.464-1.356-1.1-3.2-1.409-4.1l-.566-1.636-2.376.007a23.28,23.28,0,0,0-2.928.111" transform="translate(-57.111)" fill="#fff" fill-rule="evenodd"/>
      <g id="Image-11" transform="translate(74.598 337.366)">
        <path id="Path_34676" data-name="Path 34676" d="M15.858-252.87a4.206,4.206,0,0,0-1.06.321,3.805,3.805,0,0,0-1.769,1.8c-.053.116-.106.235-.119.265a3.782,3.782,0,0,0-.119.414,2.77,2.77,0,0,0-.089.875,3.389,3.389,0,0,0,.527,1.919,3.956,3.956,0,0,0,1.256,1.246,2.942,2.942,0,0,0,.59.282.119.119,0,0,1,.073.03,1.647,1.647,0,0,0,.315.1,4.683,4.683,0,0,0,1.577.053,3.62,3.62,0,0,0,1.915-1,3.27,3.27,0,0,0,.57-.726c.05-.093.119-.215.152-.275a4.855,4.855,0,0,0,.325-1.05,2.945,2.945,0,0,0,.027-.464l-.01-.2-1.995-.01-2-.007v.828h3.025l-.02.116a2.883,2.883,0,0,1-.968,1.375,4.081,4.081,0,0,1-.779.421,2.856,2.856,0,0,1-2.465-.338,3.156,3.156,0,0,1-.994-1.176c-.033-.083-.073-.179-.089-.215a3.064,3.064,0,0,1-.129-1.226,2.773,2.773,0,0,1,1.63-2.237,2.759,2.759,0,0,1,1.428-.232,2.694,2.694,0,0,1,1.683.825,2.692,2.692,0,0,1,.494.653.462.462,0,0,0,.07.116l.066.1h.447c.411,0,.444,0,.444-.063a2.488,2.488,0,0,0-.345-.765,3.688,3.688,0,0,0-3.184-1.786A3.769,3.769,0,0,0,15.858-252.87Z" transform="translate(0 0)" fill="#f45c2c" stroke="#f45c2c" stroke-width="0.1"/>
        <path id="Path_34677" data-name="Path 34677" d="M254.023-246.977c-.013.01-.023,1.591-.023,3.513v3.489h.961V-247H254.5A2.667,2.667,0,0,0,254.023-246.977Z" transform="translate(-233.304 -5.708)" fill="#f45c2c" stroke="#f45c2c" stroke-width="0.1"/>
        <path id="Path_34678" data-name="Path 34678" d="M484-243.488v3.513h.961v-.311a.89.89,0,0,1,.033-.335c.02-.013.116.056.215.152a2.3,2.3,0,0,0,1.491.659,2.428,2.428,0,0,0,1.243-.159,3.036,3.036,0,0,0,1.335-1.137,2.724,2.724,0,0,0,.341-1.852,2.462,2.462,0,0,0-.8-1.475,2.552,2.552,0,0,0-2.538-.673,1.45,1.45,0,0,0-.311.1.137.137,0,0,1-.073.03,2.235,2.235,0,0,0-.689.457.867.867,0,0,1-.232.182c-.01-.013-.02-.616-.02-1.342V-247H484Zm3.178-.842a1.889,1.889,0,0,1,1.223,2.8,2.271,2.271,0,0,1-.712.709,1.853,1.853,0,0,1-1.127.222,1.907,1.907,0,0,1-1.08-.527,1.867,1.867,0,0,1-.03-2.684A1.839,1.839,0,0,1,487.178-244.329Z" transform="translate(-455.683 -5.708)" fill="#f45c2c" stroke="#f45c2c" stroke-width="0.1"/>
        <path id="Path_34679" data-name="Path 34679" d="M855.023-246.812c-.013.013-.023,1.594-.023,3.516v3.493l.49-.01.487-.01v-6.992l-.467-.01A3.443,3.443,0,0,0,855.023-246.812Z" transform="translate(-814.389 -5.777)" fill="#f45c2c" stroke="#f45c2c" stroke-width="0.1"/>
        <path id="Path_34680" data-name="Path 34680" d="M301.27-191.667a2.716,2.716,0,0,0-1.786,1.14,2.516,2.516,0,0,0-.484,1.561,2.52,2.52,0,0,0,.457,1.524,2.705,2.705,0,0,0,1.846,1.176,1.94,1.94,0,0,0,.828,0,2.278,2.278,0,0,0,.732-.212A2.812,2.812,0,0,0,304.4-188.4a3.13,3.13,0,0,0-.08-1.425A2.754,2.754,0,0,0,301.27-191.667Zm.938.921a1.837,1.837,0,0,1,1.355,1.862,1.743,1.743,0,0,1-.325.961,1.86,1.86,0,0,1-1.733.775,1.74,1.74,0,0,1-1.1-.55,1.783,1.783,0,0,1-.51-1.289,1.721,1.721,0,0,1,.55-1.289,1.848,1.848,0,0,1,.991-.524A1.856,1.856,0,0,1,302.208-190.746Z" transform="translate(-276.813 -59.169)" fill="#f45c2c" stroke="#f45c2c" stroke-width="0.1"/>
        <path id="Path_34681" data-name="Path 34681" d="M668.074-189.887a2.736,2.736,0,0,0-1.687,1.09,2.534,2.534,0,0,0-.4.838,2.087,2.087,0,0,0-.083.739,2.088,2.088,0,0,0,.083.739,2.691,2.691,0,0,0,1.345,1.657,2.843,2.843,0,0,0,1.209.321,5.493,5.493,0,0,0,.845-.126,2.363,2.363,0,0,0,.951-.573c.1-.1.186-.162.2-.149a1.333,1.333,0,0,1,.033.338l.013.315.484-.01.487-.01v-5h-.961l-.017.3a1.23,1.23,0,0,1-.043.328c-.013.013-.1-.046-.182-.133A2.619,2.619,0,0,0,668.074-189.887Zm.984.815a1.912,1.912,0,0,1,1.5,1.306,2.7,2.7,0,0,1,.02,1.044,2.037,2.037,0,0,1-.845,1.12,1.894,1.894,0,0,1-1.935.02,2.369,2.369,0,0,1-.388-.321,1.879,1.879,0,0,1-.5-.934,1.9,1.9,0,0,1,.3-1.458,2.153,2.153,0,0,1,.924-.689A1.646,1.646,0,0,1,669.058-189.072Z" transform="translate(-631.555 -60.882)" fill="#f45c2c" stroke="#f45c2c" stroke-width="0.1"/>
      </g>
    </g>
  </g>
</svg>
