<svg width="800" height="800" viewBox="0 0 800 800" fill="none" xmlns="http://www.w3.org/2000/svg">
<g clip-path="url(#clip0_96_2258)">
<path d="M792.7 7.29977C795.028 9.62205 796.875 12.3808 798.136 15.4181C799.396 18.4553 800.045 21.7114 800.045 24.9998C800.045 28.2881 799.396 31.5442 798.136 34.5814C796.875 37.6187 795.028 40.3775 792.7 42.6998L585.35 250H725C731.631 250 737.989 252.634 742.678 257.322C747.366 262.011 750 268.369 750 275C750 281.63 747.366 287.989 742.678 292.677C737.989 297.366 731.631 300 725 300H525C518.37 300 512.011 297.366 507.322 292.677C502.634 287.989 500 281.63 500 275V74.9998C500 68.3694 502.634 62.0105 507.322 57.3221C512.011 52.6337 518.37 49.9998 525 49.9998C531.631 49.9998 537.989 52.6337 542.678 57.3221C547.366 62.0105 550 68.3694 550 74.9998V214.65L757.3 7.29977C759.622 4.97161 762.381 3.12446 765.418 1.86414C768.456 0.603818 771.712 -0.0449219 775 -0.0449219C778.288 -0.0449219 781.545 0.603818 784.582 1.86414C787.619 3.12446 790.378 4.97161 792.7 7.29977ZM182.7 66.3998C179.748 62.6028 176.023 59.4774 171.77 57.231C167.518 54.9847 162.836 53.6688 158.036 53.3709C153.236 53.0729 148.427 53.7997 143.93 55.503C139.432 57.2063 135.349 59.847 131.95 63.2498L80.2501 115C56.1001 139.2 47.2001 173.45 57.7501 203.5C101.537 327.879 172.765 440.805 266.15 533.9C359.246 627.284 472.171 698.511 596.55 742.3C626.6 752.85 660.85 743.95 685.05 719.8L736.75 668.1C740.153 664.701 742.794 660.618 744.497 656.12C746.2 651.622 746.927 646.814 746.629 642.014C746.331 637.214 745.015 632.532 742.769 628.28C740.523 624.027 737.397 620.301 733.6 617.35L618.25 527.65C614.194 524.504 609.476 522.32 604.452 521.263C599.428 520.206 594.23 520.304 589.25 521.55L479.75 548.9C465.134 552.553 449.821 552.359 435.302 548.337C420.783 544.315 407.553 536.603 396.9 525.95L274.1 403.1C263.439 392.452 255.716 379.224 251.686 364.705C247.655 350.186 247.453 334.87 251.1 320.25L278.5 210.75C279.745 205.77 279.844 200.572 278.787 195.548C277.73 190.524 275.546 185.806 272.4 181.75L182.7 66.3998ZM94.2001 25.5498C102.95 16.7972 113.462 10.0063 125.037 5.62783C136.613 1.24937 148.987 -0.616394 161.339 0.15442C173.691 0.925234 185.738 4.31499 196.679 10.0986C207.621 15.8822 217.206 23.9273 224.8 33.6998L314.5 149C330.95 170.15 336.75 197.7 330.25 223.7L302.9 333.2C301.486 338.871 301.562 344.812 303.122 350.445C304.681 356.078 307.671 361.213 311.8 365.35L434.65 488.2C438.792 492.337 443.935 495.332 449.578 496.892C455.221 498.451 461.171 498.523 466.85 497.1L576.3 469.75C589.131 466.542 602.523 466.293 615.464 469.021C628.405 471.75 640.557 477.385 651 485.5L766.3 575.2C807.75 607.45 811.55 668.7 774.45 705.75L722.75 757.45C685.75 794.45 630.45 810.7 578.9 792.55C446.959 746.126 327.164 670.592 228.4 571.55C129.365 472.801 53.8305 353.023 7.40011 221.1C-10.6999 169.6 5.55011 114.25 42.5501 77.2498L94.2501 25.5498H94.2001Z" fill="#F45C2C"/>
</g>
<defs>
<clipPath id="clip0_96_2258">
<rect width="800" height="800" fill="white"/>
</clipPath>
</defs>
</svg>
